<svg id="レイヤー_1" data-name="レイヤー 1" xmlns="http://www.w3.org/2000/svg" viewBox="0 0 957.06 982.6"><title>icon_cut</title><path d="M391.93,17.32c-73.45,20.33-117.13,96.27-97.56,169.6a136,136,0,0,0,139.7,100.76c9.46,35.47,26.34,98.75,38.07,142.7l67.7,28.91L489.92,272.22c56.62-29.44,87.43-95.17,70.42-158.94C540.77,40,465.37-3,391.93,17.32ZM507.14,128c11.74,44-14.46,89.56-58.53,101.77a81.7,81.7,0,0,1-101.05-57.59c-11.74-44,14.47-89.56,58.54-101.76A81.68,81.68,0,0,1,507.14,128Z" transform="translate(-35.6 -12.27)"/><path d="M592,879.57c23.22,87,90.74,115.3,90.74,115.3L574.61,588.3l-67.69-28.92S580.22,835.51,592,879.57Z" transform="translate(-35.6 -12.27)"/><path d="M309.54,400.06c9-63.07-26.79-125.55-88.83-147.74C149.36,226.81,70.28,264.25,44.07,336S54.46,486.46,125.8,512c62,22.19,129.93-3.24,163.81-57.39L992.65,706S970,636.25,885.37,606Zm-58.77,9.81c-15.73,43-63.18,65.48-106,50.17S80,397.45,95.75,354.43s63.17-65.49,106-50.18S266.49,366.85,250.77,409.87Zm273.8,103.41a13.7,13.7,0,1,1-1.1-19.44A13.77,13.77,0,0,1,524.57,513.28Z" transform="translate(-35.6 -12.27)"/></svg>