<svg id="レイヤー_1" data-name="レイヤー 1" xmlns="http://www.w3.org/2000/svg" viewBox="0 0 912.56 983.38"><defs><style>.cls-1,.cls-3{fill:#fff;}.cls-2{fill:none;}.cls-2,.cls-3{stroke:#000;stroke-miterlimit:10;stroke-width:6px;}</style></defs><title>icon_straighting</title><rect x="-74.95" y="318.18" width="784.54" height="76.45" rx="25.86" ry="25.86" transform="translate(-229.99 445.98) rotate(-60)"/><circle cx="130" cy="719.96" r="130"/><circle class="cls-1" cx="130" cy="719.96" r="50"/><path d="M990.9,553.06l-8.69-23.15a25.88,25.88,0,0,0-33.31-15.12L351.81,739.05a130,130,0,0,1-65.64,106,24.77,24.77,0,0,0,3.58-1.06l686-257.66A25.86,25.86,0,0,0,990.9,553.06Z" transform="translate(-80 -7.04)"/><rect x="477.99" y="47.39" width="40" height="260.02" rx="11.34" ry="11.34" transform="matrix(0.87, 0.5, -0.5, 0.87, 75.42, -232.27)"/><rect x="796.99" y="404.39" width="40" height="260.02" rx="11.34" ry="11.34" transform="translate(954.61 -424.32) rotate(69.69)"/><path class="cls-2" d="M126.68,826.78C54,874,135,961,244,934s283-115,376-77,69,82,69,82" transform="translate(-80 -7.04)"/><path d="M742,943.85l-56,30.87S674.14,951.87,669,942.63s-1.75-29.15,15.58-38.7,35-2,40.45,7.83S742,943.85,742,943.85Z" transform="translate(-80 -7.04)"/><line class="cls-3" x1="643.58" y1="936.42" x2="659.01" y2="968.91"/><line class="cls-3" x1="617.4" y1="949.6" x2="632.83" y2="982.09"/></svg>