<svg id="レイヤー_1" data-name="レイヤー 1" xmlns="http://www.w3.org/2000/svg" viewBox="0 0 951 808.95"><defs><style>.cls-1{fill:#fff;}</style></defs><title>icon_perm</title><path d="M255.13,271.93a70.41,70.41,0,0,1-16.49,11.63l568,606.76c28.93,30.9,55.86,42.95,60,39s-6.09-31.57-35-62.47l-567-605.76A71.16,71.16,0,0,1,255.13,271.93Z" transform="translate(-26 -121.13)"/><rect x="114.78" y="246.79" width="721.45" height="360.72" rx="11.34" ry="11.34"/><rect y="230.39" width="106.58" height="393.52" rx="11.34" ry="11.34"/><rect x="844.42" y="230.39" width="106.58" height="393.52" rx="11.34" ry="11.34"/><ellipse class="cls-1" cx="168.88" cy="427.15" rx="26.23" ry="16.4"/><circle class="cls-1" cx="227.91" cy="427.15" r="16.4"/><circle class="cls-1" cx="277.1" cy="427.15" r="16.4"/><circle class="cls-1" cx="326.29" cy="427.15" r="16.4"/><circle class="cls-1" cx="377.12" cy="427.15" r="16.4"/><circle class="cls-1" cx="426.31" cy="427.15" r="16.4"/><circle class="cls-1" cx="475.5" cy="427.15" r="16.4"/><circle class="cls-1" cx="524.69" cy="427.15" r="16.4"/><circle class="cls-1" cx="573.88" cy="427.15" r="16.4"/><circle class="cls-1" cx="623.07" cy="427.15" r="16.4"/><circle class="cls-1" cx="673.9" cy="427.15" r="16.4"/><circle class="cls-1" cx="723.09" cy="427.15" r="16.4"/><ellipse class="cls-1" cx="783.76" cy="427.15" rx="26.23" ry="16.4"/><ellipse class="cls-1" cx="168.88" cy="484.54" rx="26.23" ry="16.4"/><circle class="cls-1" cx="227.91" cy="484.54" r="16.4"/><circle class="cls-1" cx="277.1" cy="484.54" r="16.4"/><circle class="cls-1" cx="326.29" cy="484.54" r="16.4"/><circle class="cls-1" cx="377.12" cy="484.54" r="16.4"/><circle class="cls-1" cx="426.31" cy="484.54" r="16.4"/><circle class="cls-1" cx="475.5" cy="484.54" r="16.4"/><circle class="cls-1" cx="524.69" cy="484.54" r="16.4"/><circle class="cls-1" cx="573.88" cy="484.54" r="16.4"/><circle class="cls-1" cx="623.07" cy="484.54" r="16.4"/><circle class="cls-1" cx="673.9" cy="484.54" r="16.4"/><circle class="cls-1" cx="723.09" cy="484.54" r="16.4"/><ellipse class="cls-1" cx="783.76" cy="484.54" rx="26.23" ry="16.4"/><ellipse class="cls-1" cx="168.88" cy="369.76" rx="26.23" ry="16.4"/><circle class="cls-1" cx="227.91" cy="369.76" r="16.4"/><circle class="cls-1" cx="277.1" cy="369.76" r="16.4"/><circle class="cls-1" cx="326.29" cy="369.76" r="16.4"/><circle class="cls-1" cx="377.12" cy="369.76" r="16.4"/><circle class="cls-1" cx="426.31" cy="369.76" r="16.4"/><circle class="cls-1" cx="475.5" cy="369.76" r="16.4"/><circle class="cls-1" cx="524.69" cy="369.76" r="16.4"/><circle class="cls-1" cx="573.88" cy="369.76" r="16.4"/><circle class="cls-1" cx="623.07" cy="369.76" r="16.4"/><circle class="cls-1" cx="673.9" cy="369.76" r="16.4"/><circle class="cls-1" cx="723.09" cy="369.76" r="16.4"/><ellipse class="cls-1" cx="783.76" cy="369.76" rx="26.23" ry="16.4"/><ellipse class="cls-1" cx="168.88" cy="322.21" rx="26.23" ry="13.12"/><ellipse class="cls-1" cx="227.91" cy="322.21" rx="16.4" ry="13.12"/><ellipse class="cls-1" cx="277.1" cy="322.21" rx="16.4" ry="13.12"/><ellipse class="cls-1" cx="326.29" cy="322.21" rx="16.4" ry="13.12"/><ellipse class="cls-1" cx="377.12" cy="322.21" rx="16.4" ry="13.12"/><ellipse class="cls-1" cx="426.31" cy="322.21" rx="16.4" ry="13.12"/><ellipse class="cls-1" cx="475.5" cy="322.21" rx="16.4" ry="13.12"/><ellipse class="cls-1" cx="524.69" cy="322.21" rx="16.4" ry="13.12"/><ellipse class="cls-1" cx="573.88" cy="322.21" rx="16.4" ry="13.12"/><ellipse class="cls-1" cx="623.07" cy="322.21" rx="16.4" ry="13.12"/><ellipse class="cls-1" cx="673.9" cy="322.21" rx="16.4" ry="13.12"/><ellipse class="cls-1" cx="723.09" cy="322.21" rx="16.4" ry="13.12"/><ellipse class="cls-1" cx="783.76" cy="322.21" rx="26.23" ry="13.12"/><ellipse class="cls-1" cx="168.88" cy="284.5" rx="26.23" ry="13.12"/><ellipse class="cls-1" cx="227.91" cy="284.5" rx="16.4" ry="13.12"/><ellipse class="cls-1" cx="277.1" cy="284.5" rx="16.4" ry="13.12"/><ellipse class="cls-1" cx="326.29" cy="284.5" rx="16.4" ry="13.12"/><ellipse class="cls-1" cx="377.12" cy="284.5" rx="16.4" ry="13.12"/><ellipse class="cls-1" cx="426.31" cy="284.5" rx="16.4" ry="13.12"/><ellipse class="cls-1" cx="475.5" cy="284.5" rx="16.4" ry="13.12"/><ellipse class="cls-1" cx="524.69" cy="284.5" rx="16.4" ry="13.12"/><ellipse class="cls-1" cx="573.88" cy="284.5" rx="16.4" ry="13.12"/><ellipse class="cls-1" cx="623.07" cy="284.5" rx="16.4" ry="13.12"/><ellipse class="cls-1" cx="673.9" cy="284.5" rx="16.4" ry="13.12"/><ellipse class="cls-1" cx="723.09" cy="284.5" rx="16.4" ry="13.12"/><ellipse class="cls-1" cx="783.76" cy="284.5" rx="26.23" ry="13.12"/><ellipse class="cls-1" cx="168.88" cy="532.09" rx="26.23" ry="13.12"/><ellipse class="cls-1" cx="227.91" cy="532.09" rx="16.4" ry="13.12"/><ellipse class="cls-1" cx="277.1" cy="532.09" rx="16.4" ry="13.12"/><ellipse class="cls-1" cx="326.29" cy="532.09" rx="16.4" ry="13.12"/><ellipse class="cls-1" cx="377.12" cy="532.09" rx="16.4" ry="13.12"/><ellipse class="cls-1" cx="426.31" cy="532.09" rx="16.4" ry="13.12"/><ellipse class="cls-1" cx="475.5" cy="532.09" rx="16.4" ry="13.12"/><ellipse class="cls-1" cx="524.69" cy="532.09" rx="16.4" ry="13.12"/><ellipse class="cls-1" cx="573.88" cy="532.09" rx="16.4" ry="13.12"/><ellipse class="cls-1" cx="623.07" cy="532.09" rx="16.4" ry="13.12"/><ellipse class="cls-1" cx="673.9" cy="532.09" rx="16.4" ry="13.12"/><ellipse class="cls-1" cx="723.09" cy="532.09" rx="16.4" ry="13.12"/><ellipse class="cls-1" cx="783.76" cy="532.09" rx="26.23" ry="13.12"/><ellipse class="cls-1" cx="168.88" cy="569.8" rx="26.23" ry="13.12"/><ellipse class="cls-1" cx="227.91" cy="569.8" rx="16.4" ry="13.12"/><ellipse class="cls-1" cx="277.1" cy="569.8" rx="16.4" ry="13.12"/><ellipse class="cls-1" cx="326.29" cy="569.8" rx="16.4" ry="13.12"/><ellipse class="cls-1" cx="377.12" cy="569.8" rx="16.4" ry="13.12"/><ellipse class="cls-1" cx="426.31" cy="569.8" rx="16.4" ry="13.12"/><ellipse class="cls-1" cx="475.5" cy="569.8" rx="16.4" ry="13.12"/><ellipse class="cls-1" cx="524.69" cy="569.8" rx="16.4" ry="13.12"/><ellipse class="cls-1" cx="573.88" cy="569.8" rx="16.4" ry="13.12"/><ellipse class="cls-1" cx="623.07" cy="569.8" rx="16.4" ry="13.12"/><ellipse class="cls-1" cx="673.9" cy="569.8" rx="16.4" ry="13.12"/><ellipse class="cls-1" cx="723.09" cy="569.8" rx="16.4" ry="13.12"/><ellipse class="cls-1" cx="783.76" cy="569.8" rx="26.23" ry="13.12"/><ellipse class="cls-1" cx="170.52" cy="597.67" rx="26.23" ry="8.2"/><ellipse class="cls-1" cx="229.55" cy="597.67" rx="16.4" ry="8.2"/><ellipse class="cls-1" cx="278.74" cy="597.67" rx="16.4" ry="8.2"/><ellipse class="cls-1" cx="327.93" cy="597.67" rx="16.4" ry="8.2"/><ellipse class="cls-1" cx="378.76" cy="597.67" rx="16.4" ry="8.2"/><ellipse class="cls-1" cx="427.95" cy="597.67" rx="16.4" ry="8.2"/><ellipse class="cls-1" cx="477.14" cy="597.67" rx="16.4" ry="8.2"/><ellipse class="cls-1" cx="526.33" cy="597.67" rx="16.4" ry="8.2"/><ellipse class="cls-1" cx="575.52" cy="597.67" rx="16.4" ry="8.2"/><ellipse class="cls-1" cx="624.71" cy="597.67" rx="16.4" ry="8.2"/><ellipse class="cls-1" cx="675.54" cy="597.67" rx="16.4" ry="8.2"/><ellipse class="cls-1" cx="724.73" cy="597.67" rx="16.4" ry="8.2"/><ellipse class="cls-1" cx="785.39" cy="597.67" rx="26.23" ry="8.2"/><ellipse class="cls-1" cx="168.88" cy="256.62" rx="26.23" ry="8.2"/><ellipse class="cls-1" cx="227.91" cy="256.62" rx="16.4" ry="8.2"/><ellipse class="cls-1" cx="277.1" cy="256.62" rx="16.4" ry="8.2"/><ellipse class="cls-1" cx="326.29" cy="256.62" rx="16.4" ry="8.2"/><ellipse class="cls-1" cx="377.12" cy="256.62" rx="16.4" ry="8.2"/><ellipse class="cls-1" cx="426.31" cy="256.62" rx="16.4" ry="8.2"/><ellipse class="cls-1" cx="475.5" cy="256.62" rx="16.4" ry="8.2"/><ellipse class="cls-1" cx="524.69" cy="256.62" rx="16.4" ry="8.2"/><ellipse class="cls-1" cx="573.88" cy="256.62" rx="16.4" ry="8.2"/><ellipse class="cls-1" cx="623.07" cy="256.62" rx="16.4" ry="8.2"/><ellipse class="cls-1" cx="673.9" cy="256.62" rx="16.4" ry="8.2"/><ellipse class="cls-1" cx="723.09" cy="256.62" rx="16.4" ry="8.2"/><ellipse class="cls-1" cx="783.76" cy="256.62" rx="26.23" ry="8.2"/><path d="M239,158.63c39.93,42.66,37,81.35,9.9,106.68S181,293,141.06,250.35,106.28,138,117.74,127.24,199.11,116,239,158.63Z" transform="translate(-26 -121.13)"/></svg>