<svg id="レイヤー_1" data-name="レイヤー 1" xmlns="http://www.w3.org/2000/svg" viewBox="0 0 962.88 826.83"><defs><style>.cls-1,.cls-3{fill:#fff;}.cls-2{fill:none;}.cls-2,.cls-3{stroke:#000;stroke-miterlimit:10;stroke-width:6px;}</style></defs><title>icon_other</title><rect x="137.96" y="330.07" width="154.04" height="356.26" rx="75.05" ry="75.05"/><rect x="231.91" y="41.56" width="405.41" height="217.16"/><ellipse cx="210.33" cy="216.99" rx="210.33" ry="216.99"/><ellipse class="cls-1" cx="209.34" cy="217.33" rx="119.06" ry="122.84"/><ellipse cx="209.96" cy="217.22" rx="53.1" ry="54.78"/><polygon points="747.08 258.72 646.17 258.72 646.17 38.01 747.08 10.88 747.08 258.72"/><path class="cls-2" d="M228.48,778.05c0,93.17,26.68,147.16,98.51,80.46S443,698.65,529.16,700.77s131.35,118.57,133.4,134.45" transform="translate(-14 -92)"/><path d="M711.82,871.06l-57.5,32.68s-12.14-24.19-17.37-34-1.8-30.86,16-41,36-2.11,41.51,8.29S711.82,871.06,711.82,871.06Z" transform="translate(-14 -92)"/><line class="cls-3" x1="678.65" y1="778.04" x2="694.49" y2="812.43"/><line class="cls-3" x1="654.68" y1="791.18" x2="670.52" y2="825.57"/><line class="cls-2" x1="778.89" y1="77.29" x2="875" y2="77.29"/><line class="cls-2" x1="778.89" y1="128.11" x2="875" y2="128.11"/><line class="cls-2" x1="778.89" y1="182.1" x2="875" y2="182.1"/><path class="cls-2" d="M883,110c81.75-24.92,108,76,35,75.17,83.07-4.12,66,97.83-2.06,84.7C997.29,293,956,371,882,337" transform="translate(-14 -92)"/></svg>