<svg width="432" height="85" viewBox="0 0 432 85" fill="none" xmlns="http://www.w3.org/2000/svg">
<path d="M14 75.5293L16.6855 70.6465C22.1868 73.6738 27.5254 75.1875 32.7012 75.1875C36.1517 75.1875 39.293 74.569 42.125 73.332C44.9896 72.0625 47.2357 70.3535 48.8633 68.205C50.5235 66.0241 51.3536 63.664 51.3536 61.125C51.3536 58.6185 50.6049 56.3886 49.1075 54.4355C47.6101 52.4824 44.9082 50.22 41.002 47.6484C37.1934 45.1093 34.8659 43.5468 34.0196 42.9609C33.2058 42.375 32.1316 41.5449 30.7969 40.4707C28.4206 38.3873 27.2325 35.9297 27.2325 33.0976C27.2325 27.987 30.5528 23.0716 37.1934 18.3515C39.0489 17.0169 41.1648 15.8125 43.5411 14.7383C45.9499 13.6641 48.3099 12.8503 50.6211 12.2969C52.9323 11.7435 55.097 11.4668 57.1153 11.4668C60.0775 11.4668 62.405 12.0202 64.0977 13.1269C65.7904 14.2337 66.6368 15.7799 66.6368 17.7656C66.6368 20.207 65.6114 22.8274 63.5606 25.6269C61.5098 28.3939 58.7103 30.9492 55.1622 33.2929L51.2559 31.0957C53.6648 29.4681 55.6993 27.8405 57.3594 26.2129C59.0196 24.5853 60.3054 23.0065 61.2168 21.4765C62.1283 19.914 62.584 18.498 62.584 17.2285C62.584 16.3496 62.3399 15.6009 61.8516 14.9824C61.3633 14.3639 60.6635 13.8919 59.752 13.5664C58.8405 13.2409 57.7012 13.0781 56.334 13.0781C53.795 13.0781 51.0606 13.5827 48.1309 14.5918C45.2338 15.5684 42.4994 16.8704 39.9278 18.498C34.1986 22.1113 31.334 26.1315 31.334 30.5586C31.334 31.7955 31.6758 32.9674 32.3594 34.0742C33.043 35.1484 34.2312 36.3691 35.9239 37.7363C37.6491 39.1035 40.1556 40.8613 43.4434 43.0097C45.8848 44.6048 47.724 45.9069 48.961 46.916C50.2305 47.9251 51.2722 48.983 52.086 50.0898C53.9089 52.401 54.8204 54.9889 54.8204 57.8535C54.8204 60.067 54.2344 62.3131 53.0625 64.5918C51.9232 66.8704 50.2956 69.0026 48.1797 70.9883C43.2318 75.6432 36.3633 77.9707 27.5743 77.9707C21.845 77.9707 17.3203 77.1569 14 75.5293ZM89 47.9414L84.4102 65.8125C83.9219 67.7656 83.6778 69.2955 83.6778 70.4023C83.6778 71.3789 83.8894 72.2252 84.3125 72.9414C84.7357 73.6575 85.2566 74.0156 85.875 74.0156C86.8191 74.0156 88.3816 72.86 90.5625 70.5488L91.2461 71.2324L90.709 71.8672C88.9838 73.8528 87.6491 75.2526 86.7051 76.0664C85.7937 76.8476 84.9961 77.2383 84.3125 77.2383C83.2709 77.2383 82.3594 76.7011 81.5782 75.6269C80.8295 74.5202 80.4551 73.2506 80.4551 71.8183C80.4551 70.7767 80.8457 68.4166 81.627 64.7383L82.0176 62.8828C80.8132 65.6823 79.2019 68.3678 77.1836 70.9394C73.7982 75.2363 70.5593 77.3847 67.4668 77.3847C65.6114 77.3847 64.1465 76.7174 63.0723 75.3828C61.9981 74.0481 61.461 72.2578 61.461 70.0117C61.461 66.9518 62.3236 63.7454 64.0489 60.3926C65.8067 57.0397 67.9714 54.289 70.543 52.1406C73.1472 49.9596 75.67 48.8691 78.1114 48.8691C80.683 48.8691 82.6036 49.8131 83.8731 51.7011L84.4102 49.8457L89 47.9414ZM83.3848 54.1914C82.9942 52.9544 82.3269 51.9941 81.3829 51.3105C80.4714 50.5944 79.4135 50.2363 78.209 50.2363C76.7767 50.2363 75.2631 50.9036 73.668 52.2383C72.073 53.5403 70.6081 55.3633 69.2735 57.707C68.2318 59.5625 67.3529 61.6133 66.6368 63.8593C65.9532 66.1054 65.6114 67.9609 65.6114 69.4258C65.6114 71.0859 65.9206 72.388 66.5391 73.332C67.1901 74.276 68.1016 74.748 69.2735 74.748C70.7709 74.748 72.3334 74.0481 73.961 72.6484C75.5886 71.2487 77.1999 69.2467 78.795 66.6426C79.7715 65.1452 80.5365 63.6478 81.0899 62.1504C81.6433 60.653 82.2618 58.5696 82.9454 55.9004L83.3848 54.1914ZM112.291 8L99.4493 64.2988L99.0098 66.2031C98.5866 67.9935 98.375 69.5071 98.375 70.7441C98.375 71.7532 98.5541 72.5833 98.9122 73.2343C99.3028 73.8528 99.7748 74.1621 100.328 74.1621C101.337 74.1621 102.949 72.9577 105.162 70.5488L105.943 71.2324L105.455 71.7695C103.6 73.9505 102.232 75.4316 101.354 76.2129C100.475 76.9616 99.6608 77.3359 98.9122 77.3359C97.9356 77.3359 97.073 76.7988 96.3243 75.7246C95.6081 74.6178 95.25 73.3646 95.25 71.9648C95.25 70.9883 95.4616 69.442 95.8848 67.3261L107.164 10.4902L112.291 8ZM108.434 67.4238C108.434 64.4941 109.215 61.5807 110.777 58.6836C112.372 55.7539 114.423 53.3776 116.929 51.5547C119.436 49.7317 121.991 48.8203 124.595 48.8203C127.33 48.8203 129.527 49.7317 131.187 51.5547C132.88 53.345 133.726 55.6725 133.726 58.5371C133.726 61.6621 132.945 64.6894 131.382 67.6191C129.853 70.5488 127.818 72.9577 125.279 74.8457C122.772 76.7011 120.233 77.6289 117.662 77.6289C114.895 77.6289 112.665 76.7011 110.973 74.8457C109.28 72.9577 108.434 70.4837 108.434 67.4238ZM129.332 56.6816C129.332 54.7285 128.843 53.1172 127.867 51.8476C126.923 50.5781 125.702 49.9433 124.205 49.9433C122.838 49.9433 121.519 50.3828 120.25 51.2617C119.013 52.1406 117.873 53.4264 116.832 55.1191C115.66 57.0722 114.683 59.3509 113.902 61.955C113.154 64.5592 112.779 66.8704 112.779 68.8886C112.779 71.2975 113.251 73.153 114.195 74.455C115.139 75.7571 116.49 76.4082 118.248 76.4082C121.08 76.4082 123.57 74.4388 125.718 70.5C126.825 68.4817 127.704 66.2194 128.355 63.7129C129.006 61.2064 129.332 58.8626 129.332 56.6816ZM138.218 77.2871L143.394 50.2363L148.033 48.2343L143.834 66.1543C146.535 60.4577 149.221 56.1282 151.89 53.166C154.56 50.2037 157.115 48.7226 159.556 48.7226C160.761 48.7226 161.737 49.1295 162.486 49.9433C163.235 50.7246 163.609 51.7825 163.609 53.1172C163.609 53.8659 163.43 54.9238 163.072 56.291L162.584 58.3418L161.119 64.2988L160.63 66.2031C160.142 68.1562 159.898 69.6536 159.898 70.6953C159.898 71.737 160.077 72.5833 160.435 73.2343C160.793 73.8528 161.265 74.1621 161.851 74.1621C162.86 74.1621 164.472 72.9577 166.685 70.5488L167.466 71.2324L166.978 71.7695C165.123 73.9505 163.756 75.4316 162.877 76.2129C161.998 76.9616 161.184 77.3359 160.435 77.3359C159.426 77.3359 158.563 76.8314 157.847 75.8222C157.164 74.7806 156.822 73.4948 156.822 71.9648C156.822 70.9231 157.017 69.3769 157.408 67.3261L159.312 56.9746C159.573 55.347 159.703 54.2077 159.703 53.5566C159.703 52.873 159.524 52.3522 159.166 51.9941C158.808 51.636 158.319 51.457 157.701 51.457C155.455 51.457 152.688 53.8659 149.4 58.6836C147.805 60.9948 146.487 63.2897 145.445 65.5683C144.403 67.8144 143.231 70.9394 141.929 74.9433L141.49 76.2617L138.218 77.2871ZM222.984 8L210.045 64.2988C209.361 67.2936 209.019 69.3769 209.019 70.5488C209.019 71.5905 209.198 72.4368 209.556 73.0879C209.947 73.7389 210.468 74.0644 211.119 74.0644C211.965 74.0644 212.991 73.4297 214.195 72.1601L215.611 70.7441C215.644 70.7116 215.676 70.679 215.709 70.6465C215.741 70.6139 215.79 70.5814 215.855 70.5488L216.588 71.2324L216.197 71.6718C214.96 73.039 214.325 73.7389 214.293 73.7715L212.681 75.3828C211.867 76.1966 211.265 76.7011 210.875 76.8965C210.517 77.1243 210.11 77.2383 209.654 77.2383C208.58 77.2383 207.685 76.6849 206.968 75.5781C206.252 74.4713 205.894 73.2018 205.894 71.7695C205.894 70.9231 206.122 69.3769 206.578 67.1308L207.115 64.3476C206.269 66.3984 204.934 68.6282 203.111 71.0371C199.823 75.2689 196.633 77.3847 193.541 77.3847C191.685 77.3847 190.22 76.7174 189.146 75.3828C188.072 74.0156 187.535 72.1764 187.535 69.8652C187.535 66.6426 188.381 63.3873 190.074 60.0996C191.767 56.7793 193.915 54.0449 196.519 51.8965C199.156 49.748 201.776 48.6738 204.38 48.6738C206.301 48.6738 208.091 49.2435 209.752 50.3828L217.711 10.4902L222.984 8ZM209.312 52.8242C209.019 51.9453 208.417 51.2454 207.506 50.7246C206.594 50.1712 205.617 49.8945 204.576 49.8945C203.046 49.8945 201.467 50.5781 199.839 51.9453C198.244 53.3125 196.731 55.2493 195.298 57.7558C194.257 59.6113 193.394 61.6458 192.711 63.8593C192.06 66.0403 191.734 68.026 191.734 69.8164C191.734 71.3789 192.06 72.6321 192.711 73.5761C193.394 74.5202 194.322 74.9922 195.494 74.9922C196.861 74.9922 198.326 74.2923 199.888 72.8926C201.483 71.4928 203.078 69.4746 204.673 66.8379C205.748 65.0475 206.594 63.192 207.213 61.2715C207.961 58.7975 208.498 56.8118 208.824 55.3144L209.312 52.8242ZM239.341 69.2304L240.22 69.9629C238.202 72.6321 236.233 74.569 234.312 75.7734C232.392 76.9453 230.325 77.5312 228.111 77.5312C225.474 77.5312 223.358 76.6523 221.763 74.8945C220.168 73.1367 219.371 70.8092 219.371 67.9121C219.371 64.9824 220.136 62.0202 221.666 59.0254C223.228 55.998 225.165 53.5078 227.476 51.5547C229.82 49.569 232.131 48.5761 234.41 48.5761C235.744 48.5761 236.835 48.9668 237.681 49.748C238.56 50.5293 239 51.5384 239 52.7754C239 55.2819 237.632 57.7884 234.898 60.2949C232.164 62.8014 228.436 64.9336 223.716 66.6914C223.684 66.9518 223.668 67.2448 223.668 67.5703C223.668 69.8164 224.286 71.6556 225.523 73.0879C226.76 74.4876 228.355 75.1875 230.308 75.1875C231.838 75.1875 233.319 74.7155 234.752 73.7715C236.184 72.7949 237.714 71.2812 239.341 69.2304ZM223.716 65.5195C227.232 63.957 229.934 62.2155 231.822 60.2949C233.091 58.9928 234.117 57.5931 234.898 56.0957C235.679 54.5983 236.07 53.2474 236.07 52.0429C236.07 50.513 235.37 49.748 233.97 49.748C231.854 49.748 229.706 51.4245 227.525 54.7773C225.377 58.0976 224.107 61.6784 223.716 65.5195ZM273.863 10.4902L279.039 8L264.976 68.205C270.836 55.1191 276.581 48.5761 282.213 48.5761C283.352 48.5761 284.361 48.8854 285.24 49.5039C286.151 50.0898 286.851 50.9687 287.339 52.1406C287.86 53.3125 288.121 54.5495 288.121 55.8515C288.121 58.3255 287.535 61.0761 286.363 64.1035C285.191 67.0983 283.71 69.6699 281.92 71.8183C278.729 75.692 275.214 77.6289 271.373 77.6289C270.168 77.6289 269.013 77.4173 267.906 76.9941C266.799 76.6035 265.562 75.9362 264.195 74.9922L260.777 77.0429L273.863 10.4902ZM264.976 71.8183C266.441 74.8782 268.541 76.4082 271.275 76.4082C273.228 76.4082 275.035 75.5618 276.695 73.8691C278.388 72.1764 279.885 69.7187 281.187 66.4961C281.936 64.6731 282.554 62.7037 283.043 60.5879C283.531 58.4394 283.775 56.7304 283.775 55.4609C283.775 52.401 282.701 50.8711 280.552 50.8711C279.12 50.8711 277.492 51.75 275.67 53.5078C273.847 55.2656 272.007 57.7233 270.152 60.8808C268.329 64.0058 266.604 67.6517 264.976 71.8183ZM312.095 69.2304L312.974 69.9629C310.956 72.6321 308.987 74.569 307.066 75.7734C305.145 76.9453 303.078 77.5312 300.865 77.5312C298.228 77.5312 296.112 76.6523 294.517 74.8945C292.922 73.1367 292.125 70.8092 292.125 67.9121C292.125 64.9824 292.89 62.0202 294.42 59.0254C295.982 55.998 297.919 53.5078 300.23 51.5547C302.574 49.569 304.885 48.5761 307.164 48.5761C308.498 48.5761 309.589 48.9668 310.435 49.748C311.314 50.5293 311.754 51.5384 311.754 52.7754C311.754 55.2819 310.386 57.7884 307.652 60.2949C304.918 62.8014 301.19 64.9336 296.47 66.6914C296.438 66.9518 296.422 67.2448 296.422 67.5703C296.422 69.8164 297.04 71.6556 298.277 73.0879C299.514 74.4876 301.109 75.1875 303.062 75.1875C304.592 75.1875 306.073 74.7155 307.506 73.7715C308.938 72.7949 310.468 71.2812 312.095 69.2304ZM296.47 65.5195C299.986 63.957 302.688 62.2155 304.576 60.2949C305.845 58.9928 306.871 57.5931 307.652 56.0957C308.433 54.5983 308.824 53.2474 308.824 52.0429C308.824 50.513 308.124 49.748 306.724 49.748C304.608 49.748 302.46 51.4245 300.279 54.7773C298.13 58.0976 296.861 61.6784 296.47 65.5195ZM343.882 47.9414L339.293 65.8125C338.804 67.7656 338.56 69.2955 338.56 70.4023C338.56 71.3789 338.772 72.2252 339.195 72.9414C339.618 73.6575 340.139 74.0156 340.757 74.0156C341.701 74.0156 343.264 72.86 345.445 70.5488L346.129 71.2324L345.591 71.8672C343.866 73.8528 342.532 75.2526 341.588 76.0664C340.676 76.8476 339.879 77.2383 339.195 77.2383C338.153 77.2383 337.242 76.7011 336.461 75.6269C335.712 74.5202 335.338 73.2506 335.338 71.8183C335.338 70.7767 335.728 68.4166 336.509 64.7383L336.9 62.8828C335.696 65.6823 334.084 68.3678 332.066 70.9394C328.681 75.2363 325.442 77.3847 322.349 77.3847C320.494 77.3847 319.029 76.7174 317.955 75.3828C316.88 74.0481 316.343 72.2578 316.343 70.0117C316.343 66.9518 317.206 63.7454 318.931 60.3926C320.689 57.0397 322.854 54.289 325.425 52.1406C328.03 49.9596 330.552 48.8691 332.994 48.8691C335.565 48.8691 337.486 49.8131 338.756 51.7011L339.293 49.8457L343.882 47.9414ZM338.267 54.1914C337.877 52.9544 337.209 51.9941 336.265 51.3105C335.354 50.5944 334.296 50.2363 333.091 50.2363C331.659 50.2363 330.145 50.9036 328.55 52.2383C326.955 53.5403 325.491 55.3633 324.156 57.707C323.114 59.5625 322.235 61.6133 321.519 63.8593C320.836 66.1054 320.494 67.9609 320.494 69.4258C320.494 71.0859 320.803 72.388 321.422 73.332C322.073 74.276 322.984 74.748 324.156 74.748C325.653 74.748 327.216 74.0481 328.843 72.6484C330.471 71.2487 332.082 69.2467 333.677 66.6426C334.654 65.1452 335.419 63.6478 335.972 62.1504C336.526 60.653 337.144 58.5696 337.828 55.9004L338.267 54.1914ZM358.775 48.2343L354.039 67.1308C353.616 68.8235 353.404 70.2558 353.404 71.4277C353.404 72.567 353.762 73.4785 354.478 74.1621C355.194 74.8457 356.122 75.1875 357.261 75.1875C360.028 75.1875 362.909 72.9251 365.904 68.4004L366.099 68.1074C366.164 67.7819 366.213 67.5215 366.246 67.3261L369.322 50.2363L374.107 48.2343L369.81 64.2988C369.094 66.9355 368.736 69.0514 368.736 70.6465C368.736 71.6881 368.915 72.5345 369.273 73.1855C369.631 73.8366 370.103 74.1621 370.689 74.1621C371.698 74.1621 373.31 72.9577 375.523 70.5488L376.304 71.2324L375.816 71.7695C373.961 73.9505 372.593 75.4316 371.714 76.2129C370.836 76.9616 370.022 77.3359 369.273 77.3359C368.264 77.3359 367.401 76.8314 366.685 75.8222C366.002 74.7806 365.66 73.4948 365.66 71.9648C365.66 71.4765 365.676 71.0208 365.709 70.5976C362.323 75.0898 358.97 77.3359 355.65 77.3359C353.99 77.3359 352.655 76.8639 351.646 75.9199C350.67 74.9433 350.181 73.6575 350.181 72.0625C350.181 70.8255 350.36 69.3118 350.718 67.5215L354.039 50.2363L358.775 48.2343ZM388.365 50.7246L384.654 66.9843C384.263 68.7747 384.068 70.0442 384.068 70.7929C384.068 71.9648 384.345 72.9088 384.898 73.625C385.451 74.3411 386.184 74.6992 387.095 74.6992C387.974 74.6992 388.772 74.455 389.488 73.9668C390.237 73.4459 391.36 72.388 392.857 70.7929L393.443 70.207L394.175 70.9394C392.255 73.2832 390.644 74.9433 389.341 75.9199C388.072 76.8639 386.819 77.3359 385.582 77.3359C384.019 77.3359 382.766 76.8314 381.822 75.8222C380.91 74.7806 380.455 73.4297 380.455 71.7695C380.455 70.5325 380.699 68.7422 381.187 66.3984L384.361 50.7246H379.673L380.015 49.0644H384.703L387.437 35.8808L392.125 34.0254L388.707 49.0644H396.617L396.275 50.7246H388.365ZM416.978 69.2304L417.857 69.9629C415.839 72.6321 413.869 74.569 411.949 75.7734C410.028 76.9453 407.961 77.5312 405.748 77.5312C403.111 77.5312 400.995 76.6523 399.4 74.8945C397.805 73.1367 397.007 70.8092 397.007 67.9121C397.007 64.9824 397.772 62.0202 399.302 59.0254C400.865 55.998 402.802 53.5078 405.113 51.5547C407.457 49.569 409.768 48.5761 412.047 48.5761C413.381 48.5761 414.472 48.9668 415.318 49.748C416.197 50.5293 416.636 51.5384 416.636 52.7754C416.636 55.2819 415.269 57.7884 412.535 60.2949C409.8 62.8014 406.073 64.9336 401.353 66.6914C401.321 66.9518 401.304 67.2448 401.304 67.5703C401.304 69.8164 401.923 71.6556 403.16 73.0879C404.397 74.4876 405.992 75.1875 407.945 75.1875C409.475 75.1875 410.956 74.7155 412.388 73.7715C413.821 72.7949 415.351 71.2812 416.978 69.2304ZM401.353 65.5195C404.869 63.957 407.571 62.2155 409.459 60.2949C410.728 58.9928 411.754 57.5931 412.535 56.0957C413.316 54.5983 413.707 53.2474 413.707 52.0429C413.707 50.513 413.007 49.748 411.607 49.748C409.491 49.748 407.343 51.4245 405.162 54.7773C403.013 58.0976 401.744 61.6784 401.353 65.5195Z" fill="black"/>
</svg>
